<svg xmlns="http://www.w3.org/2000/svg" width="509" height="491" viewBox="0 0 509.34 490.84" role="img" aria-label="PearChat"><title>PearChat</title><svg x="175.63" y="32.00" width="158.08" height="260.00" viewBox="24 -14 152 250"><defs><linearGradient id="pcVS" x1="0" y1="36" x2="0" y2="230" gradientUnits="userSpaceOnUse"><stop offset="0" stop-color="#7ACC4A"/><stop offset="1" stop-color="#1E8A47"/></linearGradient><linearGradient id="pcVL" x1="0" y1="-16" x2="0" y2="14" gradientUnits="userSpaceOnUse"><stop offset="0" stop-color="#7ACC4A"/><stop offset="1" stop-color="#2E9A48"/></linearGradient></defs><path transform="translate(104 21) rotate(-42)" d="M0 0 C1 -14 25 -22 49 0 C25 18 1 14 0 0 Z" fill="url(#pcVL)"/><path d="M34 226 C40 210 38 186 38 160 C38 124 66 114 70 92 C74.8 65.6 82 42 100 42 C118 42 125.2 65.6 130 92 C134 114 162 124 162 160 C162 194.2 134.2 222 100 222 C76 222 52 220 34 226 Z" fill="none" stroke="url(#pcVS)" stroke-width="14" stroke-linecap="round" stroke-linejoin="round"/><circle cx="74" cy="162" r="7" fill="#1E6B3A"/><circle cx="100" cy="162" r="7" fill="#1E6B3A"/><circle cx="126" cy="162" r="7" fill="#1E6B3A"/></svg><path fill="#141B2D" d="M53.696 433.01599999999996V419.384H66.27199999999999Q69.92 419.384 72.56 417.94399999999996Q75.2 416.50399999999996 76.64 413.864Q78.08 411.224 78.08 407.768Q78.08 404.12 76.64 401.48Q75.2 398.84 72.56 397.448Q69.92 396.056 66.27199999999999 396.056H53.696V382.424H65.50399999999999Q74.432 382.424 80.816 385.4Q87.2 388.376 90.608 393.84799999999996Q94.01599999999999 399.32 94.01599999999999 407.0V408.536Q94.01599999999999 416.024 90.608 421.544Q87.2 427.06399999999996 80.816 430.03999999999996Q74.432 433.01599999999996 65.50399999999999 433.01599999999996ZM39.872 453.08V382.424H55.616V453.08Z M124.544 454.904Q117.824 454.904 112.68799999999999 452.6Q107.55199999999999 450.296 104.144 446.408Q100.736 442.52 98.96000000000001 437.67199999999997Q97.184 432.82399999999996 97.184 427.736V425.816Q97.184 420.536 98.96000000000001 415.688Q100.736 410.84 104.096 407.0Q107.456 403.15999999999997 112.49600000000001 400.904Q117.536 398.64799999999997 123.968 398.64799999999997Q132.416 398.64799999999997 138.224 402.43999999999994Q144.03199999999998 406.23199999999997 147.10399999999998 412.328Q150.176 418.424 150.176 425.62399999999997V430.808H103.616V422.072H140.864L135.872 426.104Q135.872 421.4 134.52800000000002 418.03999999999996Q133.184 414.68 130.54399999999998 412.904Q127.904 411.128 123.968 411.128Q119.936 411.128 117.152 412.952Q114.368 414.77599999999995 112.928 418.28Q111.488 421.784 111.488 426.87199999999996Q111.488 431.57599999999996 112.832 435.08Q114.176 438.584 117.05600000000001 440.504Q119.936 442.424 124.544 442.424Q128.768 442.424 131.45600000000002 440.792Q134.144 439.15999999999997 135.10399999999998 436.76H149.216Q148.064 442.03999999999996 144.704 446.168Q141.344 450.296 136.256 452.6Q131.168 454.904 124.544 454.904Z M190.208 453.08V437.52799999999996H187.616V420.632Q187.616 416.59999999999997 185.69600000000003 414.58399999999995Q183.776 412.568 179.55200000000002 412.568Q177.44 412.568 173.984 412.664Q170.52800000000002 412.76 166.88 412.952Q163.232 413.144 160.256 413.336V400.376Q162.464 400.18399999999997 165.44 399.99199999999996Q168.416 399.79999999999995 171.584 399.70399999999995Q174.752 399.608 177.536 399.608Q185.60000000000002 399.608 191.12 401.91200000000003Q196.64000000000001 404.216 199.52 408.87199999999996Q202.4 413.52799999999996 202.4 420.82399999999996V453.08ZM173.40800000000002 454.424Q167.744 454.424 163.472 452.408Q159.20000000000002 450.392 156.8 446.6Q154.4 442.808 154.4 437.52799999999996Q154.4 431.768 157.376 428.072Q160.352 424.376 165.728 422.59999999999997Q171.104 420.82399999999996 178.112 420.82399999999996H189.344V429.368H178.01600000000002Q173.984 429.368 171.824 431.336Q169.66400000000002 433.304 169.66400000000002 436.664Q169.66400000000002 439.832 171.824 441.79999999999995Q173.984 443.768 178.01600000000002 443.768Q180.608 443.768 182.672 442.856Q184.736 441.94399999999996 186.07999999999998 439.736Q187.424 437.52799999999996 187.616 433.592L191.264 437.43199999999996Q190.784 442.904 188.624 446.648Q186.464 450.392 182.672 452.408Q178.88 454.424 173.40800000000002 454.424Z M213.536 453.08V400.472H225.72799999999998V423.032H225.44Q225.44 411.89599999999996 230.192 405.84799999999996Q234.944 399.79999999999995 243.968 399.79999999999995H245.98399999999998V413.048H242.144Q235.808 413.048 232.35199999999998 416.456Q228.896 419.864 228.896 426.296V453.08Z"/><path fill="#2E9A48" d="M285.056 454.904Q275.552 454.904 268.736 451.592Q261.92 448.28 257.6 442.856Q253.28 437.43199999999996 251.216 431.144Q249.152 424.856 249.152 418.904V416.792Q249.152 410.264 251.264 403.88Q253.376 397.496 257.744 392.312Q262.112 387.128 268.784 384.008Q275.456 380.888 284.576 380.888Q294.08 380.888 301.376 384.43999999999994Q308.672 387.99199999999996 313.04 394.28Q317.408 400.568 318.176 409.01599999999996H302.336Q301.664 404.792 299.264 401.816Q296.86400000000003 398.84 293.072 397.20799999999997Q289.28 395.57599999999996 284.576 395.57599999999996Q279.872 395.57599999999996 276.22400000000005 397.20799999999997Q272.576 398.84 270.12800000000004 401.816Q267.68 404.792 266.384 408.87199999999996Q265.088 412.952 265.088 417.94399999999996Q265.088 422.84 266.384 426.91999999999996Q267.68 431.0 270.22400000000005 434.024Q272.76800000000003 437.048 276.512 438.632Q280.256 440.216 285.056 440.216Q292.352 440.216 297.392 436.664Q302.432 433.11199999999997 303.488 426.87199999999996H319.23199999999997Q318.368 434.55199999999996 314.096 440.936Q309.824 447.32 302.48 451.11199999999997Q295.136 454.904 285.056 454.904Z M326.912 453.08V383.0H342.272V423.416H339.968Q339.968 415.448 341.98400000000004 409.976Q344.0 404.50399999999996 347.93600000000004 401.67199999999997Q351.872 398.84 357.824 398.84H358.496Q367.23199999999997 398.84 371.84 405.032Q376.448 411.224 376.448 423.128V453.08H361.08799999999997V422.168Q361.08799999999997 417.84799999999996 358.544 415.20799999999997Q356.0 412.568 351.872 412.568Q347.552 412.568 344.91200000000003 415.352Q342.272 418.13599999999997 342.272 422.74399999999997V453.08Z M419.36 453.08V437.52799999999996H416.76800000000003V420.632Q416.76800000000003 416.59999999999997 414.848 414.58399999999995Q412.928 412.568 408.704 412.568Q406.59200000000004 412.568 403.136 412.664Q399.68 412.76 396.03200000000004 412.952Q392.384 413.144 389.408 413.336V400.376Q391.61600000000004 400.18399999999997 394.59200000000004 399.99199999999996Q397.56800000000004 399.79999999999995 400.736 399.70399999999995Q403.904 399.608 406.68800000000005 399.608Q414.752 399.608 420.27200000000005 401.91200000000003Q425.79200000000003 404.216 428.672 408.87199999999996Q431.552 413.52799999999996 431.552 420.82399999999996V453.08ZM402.56 454.424Q396.896 454.424 392.624 452.408Q388.35200000000003 450.392 385.952 446.6Q383.552 442.808 383.552 437.52799999999996Q383.552 431.768 386.528 428.072Q389.504 424.376 394.88 422.59999999999997Q400.25600000000003 420.82399999999996 407.264 420.82399999999996H418.49600000000004V429.368H407.168Q403.136 429.368 400.976 431.336Q398.81600000000003 433.304 398.81600000000003 436.664Q398.81600000000003 439.832 400.976 441.79999999999995Q403.136 443.768 407.168 443.768Q409.76000000000005 443.768 411.82400000000007 442.856Q413.88800000000003 441.94399999999996 415.232 439.736Q416.576 437.52799999999996 416.76800000000003 433.592L420.41600000000005 437.43199999999996Q419.93600000000004 442.904 417.77600000000007 446.648Q415.61600000000004 450.392 411.82400000000007 452.408Q408.03200000000004 454.424 402.56 454.424Z M466.592 453.752Q458.624 453.752 453.728 451.784Q448.832 449.816 446.576 445.15999999999997Q444.32 440.50399999999996 444.32 432.536V386.264H458.624V433.11199999999997Q458.624 436.856 460.592 438.82399999999996Q462.56 440.792 466.208 440.792H473.98400000000004V453.752ZM436.35200000000003 411.704V400.472H473.98400000000004V411.704Z"/></svg>
